<?xml version="1.0" encoding="iso-8859-1"?>
<!-- Generator: Adobe Illustrator 19.0.0, SVG Export Plug-In . SVG Version: 6.00 Build 0)  -->
<svg version="1.1" id="Capa_1" xmlns="http://www.w3.org/2000/svg" xmlns:xlink="http://www.w3.org/1999/xlink" x="0px" y="0px"
	 viewBox="0 0 392.521 392.521" style="enable-background:new 0 0 392.521 392.521;" xml:space="preserve">
<path style="fill:#45B549;" d="M189.301,247.261c1.385-3.775,5.567-5.712,9.342-4.328c3.393,1.245,5.36,4.79,4.618,8.328
	c0,0.24-24,77.68,78,127.4c3.623,1.767,5.127,6.137,3.36,9.76c-1.767,3.623-6.137,5.127-9.76,3.36l0,0
	C161.661,336.661,189.261,247.541,189.301,247.261z"/>
<path style="fill:#F16730;" d="M168.661,21.541c3.836-15.254,19.312-24.51,34.566-20.674c10.173,2.558,18.116,10.501,20.674,20.674
	c10.812-11.424,28.837-11.921,40.262-1.109c7.782,7.365,10.772,18.474,7.738,28.749c15.095-4.422,30.916,4.231,35.338,19.326
	c3.003,10.253,0.016,21.324-7.738,28.674c15.254,3.836,24.51,19.312,20.674,34.566c-2.558,10.173-10.501,18.116-20.674,20.674
	c11.424,10.812,11.921,28.837,1.109,40.262c-7.365,7.782-18.474,10.772-28.749,7.738c4.422,15.095-4.231,30.916-19.326,35.338
	c-10.253,3.003-21.324,0.016-28.674-7.738c-3.836,15.254-19.312,24.51-34.566,20.674c-10.173-2.558-18.116-10.501-20.674-20.674
	c-10.812,11.424-28.837,11.921-40.262,1.109c-7.782-7.365-10.772-18.474-7.738-28.749c-15.095,4.422-30.916-4.231-35.338-19.326
	c-3.003-10.253-0.016-21.324,7.738-28.674c-15.254-3.836-24.51-19.312-20.674-34.566c2.558-10.173,10.501-18.116,20.674-20.674
	C81.596,86.329,81.1,68.304,91.911,56.879c7.365-7.782,18.474-10.772,28.749-7.738c-4.454-15.085,4.165-30.925,19.251-35.378
	c10.276-3.034,21.385-0.044,28.749,7.738L168.661,21.541z"/>
<circle style="fill:#FFED00;" cx="196.301" cy="124.621" r="49.88"/>
<g>
	
		<ellipse transform="matrix(-0.9501 -0.3118 0.3118 -0.9501 194.7295 605.3478)" style="fill:#45B549;" cx="145.764" cy="287.105" rx="51.56" ry="28.72"/>
	
		<ellipse transform="matrix(-0.3118 -0.9501 0.9501 -0.3118 35.4753 657.7305)" style="fill:#45B549;" cx="255.927" cy="316.018" rx="25.76" ry="46.16"/>
</g>
<g>
</g>
<g>
</g>
<g>
</g>
<g>
</g>
<g>
</g>
<g>
</g>
<g>
</g>
<g>
</g>
<g>
</g>
<g>
</g>
<g>
</g>
<g>
</g>
<g>
</g>
<g>
</g>
<g>
</g>
</svg>
